# xmcd
#
# Track frame offsets: 
#        150
#        19110
#        37222
#        53677
#        70390
#        85990
#        107955
#        125057
#        140645
#        158822
#        180647
#        197617
#
# Disc length: 3103 seconds
#
# Revision: 3
# Processed by: cddbd v1.5.2PL0 Copyright (c) Steve Scherf et al.
# Submitted via: ExactAudioCopy v0.95b3
#
DISCID=af0c1d0c
DTITLE=Ankie Bagger - Where Were You Last Night
DYEAR=1989
DGENRE=Pop
TTITLE0=Where Were You Last Night
TTITLE1=I Was Made For Loving You
TTITLE2=There's No Reason
TTITLE3=Dance The Night Away
TTITLE4=People Say It's In The Air
TTITLE5=Don't You Know Don't You Know
TTITLE6=In My House
TTITLE7=Love Really Hurts Without You
TTITLE8=It's You
TTITLE9=Relax
TTITLE10=Sandy, Sandy
TTITLE11=Where Were You Last Night (12" Remix)
EXTD=
EXTT0=
EXTT1=
EXTT2=
EXTT3=
EXTT4=
EXTT5=
EXTT6=
EXTT7=
EXTT8=
EXTT9=
EXTT10=
EXTT11=
PLAYORDER=
